<svg version="1.1" id="Layer_1" xmlns="http://www.w3.org/2000/svg" xmlns:xlink="http://www.w3.org/1999/xlink" x="0px" y="0px"
	 width="100%" viewBox="0 0 256 256" enable-background="new 0 0 256 256" xml:space="preserve">
<path fill="#000000" opacity="1.000000" stroke="none" 
	d="
M257.000000,137.531342 
	C248.089172,142.432892 239.193283,142.863251 230.652603,137.484573 
	C228.330841,139.793381 230.104416,141.677856 230.536942,143.394913 
	C233.306015,154.387878 227.281647,165.295151 216.716202,168.079910 
	C205.390778,171.064972 193.005386,164.111862 190.894043,152.887390 
	C189.946030,147.847580 188.602722,145.572235 182.958389,144.635544 
	C173.742523,143.106110 169.257111,136.249786 167.160309,123.453636 
	C165.081772,130.662933 163.530945,137.389328 161.384811,143.958755 
	C157.718445,155.181763 149.746368,160.818008 138.484879,159.376862 
	C128.441772,158.091614 121.868484,149.967285 121.650963,138.563171 
	C121.632240,137.581436 121.648491,136.599045 121.648491,134.846756 
	C114.410866,137.476395 108.089569,140.754868 102.079323,144.367813 
	C94.408394,148.979034 86.380630,152.910904 78.924232,157.996964 
	C65.133514,167.403687 43.723431,157.116714 41.983719,140.576019 
	C41.017075,131.385498 41.135521,122.108841 41.268383,112.844597 
	C41.438366,100.992104 41.113678,89.133018 41.053787,77.276520 
	C41.021320,70.849365 40.592697,64.371056 41.232895,58.005333 
	C42.375854,46.640537 51.505852,39.039772 62.329044,39.709087 
	C73.368126,40.391750 81.295517,49.265194 81.276077,60.892750 
	C81.252411,75.049400 81.226227,89.206093 81.252701,103.362679 
	C81.256042,105.152283 80.941681,107.025322 82.211472,109.265465 
	C90.927605,105.010620 99.830750,101.131752 108.051399,95.901421 
	C110.600754,94.279411 108.629036,92.436996 107.863731,90.711075 
	C104.736633,83.658821 102.427124,76.385391 103.679787,68.571495 
	C104.929192,60.777851 109.628883,55.533760 117.139603,53.395180 
	C124.422066,51.321587 131.336929,52.311161 137.017044,57.963032 
	C138.174408,59.114635 139.385864,60.211884 140.733978,61.487045 
	C143.092316,59.539135 143.849106,56.944275 145.016083,54.617439 
	C149.446472,45.783707 158.099777,41.560795 167.812851,43.604286 
	C170.608246,44.192402 172.866516,44.861938 175.161438,41.800549 
	C180.301895,34.943249 187.431320,32.280674 195.903519,34.308975 
	C204.868332,36.455208 209.575165,42.616905 211.266266,51.400711 
	C211.452347,52.367249 211.678329,53.326576 211.910202,54.283333 
	C211.944733,54.425789 212.114365,54.535507 212.221481,54.660370 
	C220.168808,53.882603 222.548431,51.429951 222.645645,43.891739 
	C222.669266,42.059765 222.732864,40.223103 222.639206,38.395710 
	C222.182220,29.478218 225.835968,22.840151 233.849075,18.928988 
	C242.134277,14.885014 249.677841,16.719244 256.740875,22.777748 
	C257.000000,61.020893 257.000000,99.041786 257.000000,137.531342 
z"/>
</svg>